#!OML:ASF F:\VICON\USERDATA\INSTALL\rory3\rory3.ASF
:FULLY-SPECIFIED
:DEGREES
456
root -2.36989 16.7215 -36.6402 193.87 11.2504 -542.072
lowerback -8.05625 -0.508408 -0.422688
upperback -5.39724 -0.211001 -0.118739
thorax -1.05871 0.0924813 0.0967238
lowerneck -16.1726 -2.57814 -5.22283
upperneck 24.3598 -2.7503 4.97407
head 10.647 -0.838006 2.3438
rclavicle -7.35348e-016 -3.97569e-015
rhumerus -41.6107 2.46007 -80.1254
rradius 29.6693
rwrist 7.19674
rhand -19.9612 -48.0879
rfingers 7.12502
rthumb 6.37729 -77.9719
lclavicle -7.35348e-016 -3.97569e-015
lhumerus -18.6503 -14.9535 82.6343
lradius 43.1887
lwrist 15.4783
lhand -36.9707 327.43
lfingers 7.12502
lthumb -10.0464 -2.82971
rfemur -54.625 2.94213 19.08
rtibia 65.8969
rfoot -15.2034 -26.4479
rtoes -4.93822
lfemur -24.9293 1.54527 -26.8286
ltibia 51.9922
lfoot -26.0424 3.20411
ltoes -7.10772
457
root -2.32692 16.7895 -36.7863 194.138 10.3658 -541.601
lowerback -9.13846 -0.661006 0.154853
upperback -4.68916 -0.506014 0.0124487
thorax 0.264887 -0.0893491 -0.119677
lowerneck -15.8402 -2.36631 -5.48013
upperneck 23.2029 -2.57074 5.4464
head 10.16 -0.764419 2.55429
rclavicle 4.14186e-014 -2.78299e-015
rhumerus -41.0234 2.34475 -79.879
rradius 30.1811
rwrist 7.46538
rhand -20.2051 -46.9814
rfingers 7.12502
rthumb 6.14177 -76.8724
lclavicle 4.14186e-014 -2.78299e-015
lhumerus -16.4583 -15.9449 82.629
lradius 43.7224
lwrist 15.5487
lhand -37.0475 327.174
lfingers 7.12502
lthumb -10.1204 -3.08923
rfemur -54.673 2.60608 19.3167
rtibia 62.8956
rfoot -17.3325 -25.3165
rtoes -2.31166
lfemur -24.3418 1.06136 -26.0005
ltibia 51.2616
lfoot -24.9185 3.0291
ltoes -15.29
458
root -2.25135 16.8254 -36.9104 194.147 10.1094 -541.743
lowerback -8.46015 -0.924982 -0.693162
upperback -4.99097 -0.780177 0.180113
thorax -0.404971 -0.199878 0.511466
lowerneck -15.6387 -2.25561 -5.23991
upperneck 23.2717 -2.41047 5.19381
head 10.1295 -0.694914 2.44726
rclavicle -1.8869e-014 1.0138e-014
rhumerus -41.872 2.80024 -79.7879
rradius 30.6799
rwrist 7.56997
rhand -20.414 -45.93
rfingers 7.12502
rthumb 5.94008 -75.8267
lclavicle -1.8869e-014 1.0138e-014
lhumerus -15.9495 -16.5507 82.8943
lradius 44.5352
lwrist 15.4139
lhand -36.8667 327.28
lfingers 7.12502
lthumb -9.94605 -2.97543
rfemur -54.8564 3.31763 18.738
rtibia 59.9871
rfoot -17.3334 -24.837
rtoes -2.18845
lfemur -23.7638 0.89512 -25.772
ltibia 50.4732
lfoot -23.5656 2.58384
ltoes -16.1837
459
root -2.21673 16.9271 -37.1831 193.491 9.10632 -542.063
lowerback -8.47201 -1.42128 -0.625289
upperback -5.29252 -1.40807 0.212496
thorax -0.703368 -0.496856 0.459141
lowerneck -17.1615 -2.47629 -4.07858
upperneck 25.4195 -2.48757 3.52486
head 11.1827 -0.762117 1.67676
rclavicle -4.43694e-014 -9.54166e-015
rhumerus -43.5945 3.79071 -79.7289
rradius 31.1508
rwrist 7.45344
rhand -20.344 -45.074
rfingers 7.12502
rthumb 6.00767 -74.9688
lclavicle -4.43694e-014 -9.54166e-015
lhumerus -16.6647 -16.8201 83.5443
lradius 45.5247
lwrist 15.0666
lhand -36.5854 327.412
lfingers 7.12502
lthumb -9.67463 -2.82984
rfemur -53.2021 1.64394 18.3252
rtibia 57.199
rfoot -17.721 -23.2204
rtoes -4.51359
lfemur -21.2761 0.401682 -25.9711
ltibia 49.4132
lfoot -23.0738 2.12207
ltoes -17.1387
460
root -2.14159 16.9548 -37.2824 193.381 9.08712 -542.499
lowerback -7.70289 -1.6269 -1.92445
upperback -5.25753 -1.63543 0.343238
thorax -1.04651 -0.586245 1.31993
lowerneck -17.4399 -2.36213 -4.11884
upperneck 25.3079 -2.34937 3.59639
head 11.1905 -0.704035 1.72575
rclavicle -3.18048e-014 -1.2921e-014
rhumerus -43.5696 4.10963 -79.5584
rradius 31.4941
rwrist 7.44706
rhand -19.7657 -44.3682
rfingers 7.12502
rthumb 6.56603 -74.2464
lclavicle -3.18048e-014 -1.2921e-014
lhumerus -15.5116 -17.4154 83.6372
lradius 46.261
lwrist 15.0269
lhand -36.3761 327.172
lfingers 7.12502
lthumb -9.4727 -3.06058
rfemur -53.5126 2.68298 17.2918
rtibia 54.63
rfoot -17.8912 -22.3459
rtoes -4.25961
lfemur -20.7683 0.273055 -26.0972
ltibia 48.6304
lfoot -21.527 1.70502
ltoes -18.1868
461
root -2.09721 17.0263 -37.459 193.336 8.03475 -542.231
lowerback -7.14441 -2.07152 -1.63816
upperback -5.7293 -2.21438 0.574889
thorax -1.8246 -0.850388 1.38205
lowerneck -16.5204 -2.17619 -4.30523
upperneck 25.2209 -2.07526 3.81847
head 10.9693 -0.558094 1.88203
rclavicle -2.83827e-014 -9.93923e-015
rhumerus -44.8778 4.64672 -79.4114
rradius 32.1515
rwrist 7.46189
rhand -19.2353 -44.1218
rfingers 7.12502
rthumb 7.07801 -73.9834
lclavicle -2.83827e-014 -9.93923e-015
lhumerus -15.6496 -18.2506 84.0363
lradius 47.0585
lwrist 15.0991
lhand -36.1591 326.972
lfingers 7.12502
lthumb -9.26335 -3.25144
rfemur -52.9083 1.86455 17.3766
rtibia 52.0083
rfoot -13.6383 -22.2342
rtoes -14.9526
lfemur -19.58 -0.397392 -25.503
ltibia 47.7179
lfoot -20.4041 1.11202
ltoes -18.9329
462
root -2.03762 17.1017 -37.7183 193.075 7.51634 -542.099
lowerback -8.80517 -2.22452 -1.47427
upperback -5.07842 -2.42911 0.604547
thorax -0.234045 -0.993678 1.24331
lowerneck -17.1917 -2.27877 -4.06757
upperneck 25.4086 -2.21085 3.51654
head 11.1715 -0.638663 1.71188
rclavicle -4.19933e-014 -2.18663e-014
rhumerus -44.9297 4.62002 -79.1843
rradius 32.4467
rwrist 7.25824
rhand -19.0274 -43.8981
rfingers 7.12502
rthumb 7.27867 -73.753
lclavicle -4.19933e-014 -2.18663e-014
lhumerus -14.4788 -19.2462 83.996
lradius 47.8562
lwrist 14.8254
lhand -35.9144 327.089
lfingers 7.12502
lthumb -9.02717 -3.12462
rfemur -51.8216 1.31246 17.3436
rtibia 49.491
rfoot -15.0021 -20.8407
rtoes -14.8124
lfemur -17.8276 -0.595611 -25.1736
ltibia 46.8388
lfoot -19.6849 0.749013
ltoes -19.5077
463
root -1.98841 17.1448 -37.8088 192.576 6.58809 -541.458
lowerback -6.93568 -2.44106 -1.01632
upperback -5.25171 -2.79777 0.885907
thorax -1.43821 -1.18708 1.3193
lowerneck -16.7294 -2.12881 -4.20133
upperneck 25.101 -2.00087 3.62261
head 10.9585 -0.547945 1.79962
rclavicle -1.40547e-014 -9.14409e-015
rhumerus -45.2531 4.92191 -79.1068
rradius 32.4616
rwrist 6.5441
rhand -18.6109 -43.8197
rfingers 7.12502
rthumb 7.68071 -73.6602
lclavicle -1.40547e-014 -9.14409e-015
lhumerus -13.9171 -19.9729 84.1788
lradius 48.7596
lwrist 14.2207
lhand -35.5568 327.113
lfingers 7.12502
lthumb -8.68212 -3.08512
rfemur -51.0469 1.36207 17.7007
rtibia 47.2379
rfoot -15.2765 -20.1675
rtoes -14.2425
lfemur -16.7722 -1.07992 -24.0827
ltibia 46.226
lfoot -18.2623 0.385793
ltoes -20.4696
464
root -1.93727 17.1868 -38.0619 192.612 6.38779 -541.643
lowerback -8.80296 -2.45308 -0.900881
upperback -4.7652 -2.80996 0.696387
thorax 0.078064 -1.21223 0.977513
lowerneck -16.547 -2.03557 -4.26735
upperneck 24.6992 -1.93106 3.82475
head 10.7726 -0.50978 1.88608
rclavicle 1.51418e-014 0
rhumerus -45.2661 4.98055 -79.1063
rradius 32.4832
rwrist 5.76339
rhand -18.1719 -44.1522
rfingers 7.12502
rthumb 8.10443 -73.9768
lclavicle 1.51418e-014 0
lhumerus -12.9912 -20.9587 84.1486
lradius 49.6836
lwrist 13.8314
lhand -35.0793 327.178
lfingers 7.12502
lthumb -8.2213 -3.00208
rfemur -50.8188 0.851474 17.3556
rtibia 45.0249
rfoot -12.6071 -20.5996
rtoes -20.8903
lfemur -15.474 -1.27019 -24.2248
ltibia 45.4363
lfoot -17.532 0.362213
ltoes -21.7726
465
root -1.84961 17.2365 -38.2079 191.978 5.8929 -541.487
lowerback -8.14798 -2.59568 -1.42585
upperback -4.68295 -2.99662 0.899705
thorax -0.154131 -1.30395 1.4875
lowerneck -15.6742 -1.85764 -4.49719
upperneck 24.2142 -1.69585 4.06591
head 10.4179 -0.398905 2.03656
rclavicle 4.24281e-014 -8.94531e-015
rhumerus -45.6386 4.89866 -78.8091
rradius 32.4404
rwrist 5.47637
rhand -17.9493 -44.3405
rfingers 7.12502
rthumb 8.31927 -74.1567
lclavicle 4.24281e-014 -8.94531e-015
lhumerus -12.614 -21.8865 84.3958
lradius 50.7519
lwrist 13.6587
lhand -34.7253 327.434
lfingers 7.12502
lthumb -7.87961 -2.73264
rfemur -49.3139 1.73324 16.9043
rtibia 43.3485
rfoot -16.9438 -18.4016
rtoes -12.027
lfemur -14.172 -1.52997 -23.6116
ltibia 44.8578
lfoot -16.2515 -0.197284
ltoes -21.9368
466
root -1.77864 17.2419 -38.3814 192.209 5.71246 -541.746
lowerback -7.72952 -2.92901 -2.14969
upperback -5.29976 -3.34473 1.04149
thorax -0.961208 -1.42152 2.04353
lowerneck -15.8654 -1.85517 -4.55197
upperneck 24.8865 -1.64704 4.1417
head 10.7009 -0.348347 2.09611
rclavicle -1.49089e-015 1.31198e-014
rhumerus -46.4997 5.197 -78.6313
rradius 32.4509
rwrist 5.4823
rhand -17.6369 -44.3967
rfingers 7.12502
rthumb 8.62077 -74.2007
lclavicle -1.49089e-015 1.31198e-014
lhumerus -13.031 -22.376 84.6807
lradius 51.8051
lwrist 13.5274
lhand -34.321 326.884
lfingers 7.12502
lthumb -7.48942 -3.26813
rfemur -49.6886 2.47576 15.9005
rtibia 41.6134
rfoot -15.0181 -19.6427
rtoes -16.4567
lfemur -13.7078 -1.84107 -23.6675
ltibia 44.3099
lfoot -14.962 -0.388957
ltoes -21.8551
